<svg xmlns="http://www.w3.org/2000/svg" viewBox="0 0 128 128" role="img" aria-label="OpenSpark">
  <defs>
    <linearGradient id="bg" x1="16" y1="8" x2="112" y2="120" gradientUnits="userSpaceOnUse">
      <stop stop-color="#1aa37f"/>
      <stop offset="1" stop-color="#0a4639"/>
    </linearGradient>
  </defs>
  <rect width="128" height="128" rx="30" fill="url(#bg)"/>
  <!-- simplified bulb -->
  <path
    fill="#f7f3e8"
    d="M64 20c-17.1 0-31 12.7-31 32.2 0 12.6 6.7 21 14.8 28.8 2.9 2.8 5.9 5.5 7.9 9h16.6c2-3.5 5-6.2 7.9-9C88.3 73.2 95 64.8 95 52.2 95 32.7 81.1 20 64 20z"
  />
  <path fill="#f7f3e8" d="M52.5 96h23v7.5h-23z"/>
  <path fill="#f7f3e8" d="M55.5 107.5h17V114h-17z"/>
  <!-- warm filament spark -->
  <path
    fill="#d4a15a"
    d="M64 38c1.8 0 3.2 1.4 3.2 3.5 0 4.8-2.7 7.7-5.3 11.1-1 1.3-2 2.7-2.7 4.3-.5 1.1-2.1.8-2.1-.5 0-3 1.5-5.2 3.2-7.5C63.2 45.5 65 43.2 65 40.8c0-1.2-.6-2-2.4-2-3.5 0-6.5 2.9-6.5 7.6 0 1.1-.9 2-2 2s-2-.9-2-2C52.1 40.2 57.2 35 64 35c0 0 0 3 0 3z"
  />
  <circle cx="92" cy="34" r="3.2" fill="#d4a15a"/>
  <circle cx="99" cy="44" r="2.1" fill="#f7f3e8" opacity=".85"/>
  <circle cx="36" cy="40" r="2.4" fill="#f7f3e8" opacity=".7"/>
</svg>
